<svg width="48" height="48" viewBox="0 0 48 48" fill="none" xmlns="http://www.w3.org/2000/svg">
<path d="M20.2376 26.9934H7.49542C7.09784 26.9934 6.71654 26.8354 6.43541 26.5542C6.15428 26.2729 5.99634 25.8915 5.99634 25.4938V13.4967C5.99634 13.099 6.15428 12.7175 6.43541 12.4363C6.71654 12.1551 7.09784 11.9971 7.49542 11.9971H18.7386C19.1361 11.9971 19.5174 12.1551 19.7986 12.4363C20.0797 12.7175 20.2376 13.099 20.2376 13.4967V29.9927C20.2376 31.9813 19.4479 33.8885 18.0423 35.2946C16.6366 36.7008 14.7301 37.4908 12.7422 37.4908" stroke="#FF9F0D" stroke-width="1.5" stroke-linecap="round" stroke-linejoin="round"/>
<path d="M41.9745 26.9934H29.2322C28.8347 26.9934 28.4534 26.8354 28.1722 26.5542C27.8911 26.2729 27.7332 25.8915 27.7332 25.4938V13.4967C27.7332 13.099 27.8911 12.7175 28.1722 12.4363C28.4534 12.1551 28.8347 11.9971 29.2322 11.9971H40.4754C40.8729 11.9971 41.2542 12.1551 41.5354 12.4363C41.8165 12.7175 41.9745 13.099 41.9745 13.4967V29.9927C41.9745 31.9813 41.1848 33.8885 39.7791 35.2946C38.3734 36.7008 36.4669 37.4908 34.479 37.4908" stroke="#FF9F0D" stroke-width="1.5" stroke-linecap="round" stroke-linejoin="round"/>
</svg>
