<svg width="152" height="24" viewBox="0 0 152 24" fill="none" xmlns="http://www.w3.org/2000/svg">
<path d="M23.3522 8.5713L15.9755 7.44487L12.6702 0.394281C12.5983 0.273599 12.4984 0.174109 12.3799 0.105144C12.2614 0.0361795 12.1281 0 11.9927 0C11.8572 0 11.724 0.0361795 11.6055 0.105144C11.487 0.174109 11.3871 0.273599 11.3151 0.394281L8.0098 7.4545L0.63616 8.5713C0.502581 8.58508 0.37552 8.63867 0.269909 8.72578C0.164299 8.81288 0.0845293 8.92987 0.0399754 9.063C-0.0045786 9.19613 -0.0120651 9.33987 0.0183959 9.47732C0.0488568 9.61477 0.115999 9.74022 0.211932 9.83893L5.5682 15.3427L4.30162 23.1154C4.28541 23.2586 4.30716 23.4038 4.36448 23.5349C4.4218 23.666 4.51245 23.7779 4.62643 23.8583C4.74041 23.9386 4.87329 23.9843 5.0104 23.9902C5.1475 23.9962 5.2835 23.9622 5.40339 23.892L11.9927 20.2463L18.5789 23.8952C18.6988 23.9654 18.8348 23.9994 18.9719 23.9934C19.109 23.9875 19.2419 23.9418 19.3559 23.8615C19.4698 23.7811 19.5605 23.6692 19.6178 23.5381C19.6751 23.407 19.6969 23.2618 19.6807 23.1186L18.4171 15.3427L23.7734 9.83893C23.8693 9.74022 23.9365 9.61477 23.9669 9.47732C23.9974 9.33987 23.9899 9.19613 23.9454 9.063C23.9008 8.92987 23.821 8.81288 23.7154 8.72578C23.6098 8.63867 23.4828 8.58508 23.3492 8.5713H23.3522Z" fill="#FF9F0D"/>
<path d="M55.3328 8.5713L47.9561 7.44487L44.6508 0.394281C44.5789 0.273599 44.479 0.174109 44.3605 0.105144C44.2419 0.0361795 44.1087 0 43.9733 0C43.8378 0 43.7046 0.0361795 43.5861 0.105144C43.4676 0.174109 43.3676 0.273599 43.2957 0.394281L39.9904 7.4545L32.6168 8.5713C32.4832 8.58508 32.3561 8.63867 32.2505 8.72578C32.1449 8.81288 32.0651 8.92987 32.0206 9.063C31.976 9.19613 31.9685 9.33987 31.999 9.47732C32.0294 9.61477 32.0966 9.74022 32.1925 9.83893L37.5488 15.3427L36.2822 23.1154C36.266 23.2586 36.2878 23.4038 36.3451 23.5349C36.4024 23.666 36.493 23.7779 36.607 23.8583C36.721 23.9386 36.8539 23.9843 36.991 23.9902C37.1281 23.9962 37.2641 23.9622 37.384 23.892L43.9733 20.2463L50.5595 23.8952C50.6794 23.9654 50.8154 23.9994 50.9525 23.9934C51.0896 23.9875 51.2225 23.9418 51.3364 23.8615C51.4504 23.7811 51.5411 23.6692 51.5984 23.5381C51.6557 23.407 51.6775 23.2618 51.6613 23.1186L50.3977 15.3427L55.754 9.83893C55.8499 9.74022 55.9171 9.61477 55.9475 9.47732C55.978 9.33987 55.9705 9.19613 55.926 9.063C55.8814 8.92987 55.8016 8.81288 55.696 8.72578C55.5904 8.63867 55.4634 8.58508 55.3298 8.5713H55.3328Z" fill="#FF9F0D"/>
<path d="M87.313 8.5713L79.9364 7.44487L76.631 0.394281C76.5591 0.273599 76.4592 0.174109 76.3407 0.105144C76.2222 0.0361795 76.0889 0 75.9535 0C75.818 0 75.6848 0.0361795 75.5663 0.105144C75.4478 0.174109 75.3479 0.273599 75.2759 0.394281L71.9706 7.4545L64.597 8.5713C64.4634 8.58508 64.3363 8.63867 64.2307 8.72578C64.1251 8.81288 64.0453 8.92987 64.0008 9.063C63.9562 9.19613 63.9488 9.33987 63.9792 9.47732C64.0097 9.61477 64.0768 9.74022 64.1727 9.83893L69.529 15.3427L68.2624 23.1154C68.2462 23.2586 68.268 23.4038 68.3253 23.5349C68.3826 23.666 68.4733 23.7779 68.5872 23.8583C68.7012 23.9386 68.8341 23.9843 68.9712 23.9902C69.1083 23.9962 69.2443 23.9622 69.3642 23.892L75.9535 20.2463L82.5397 23.8952C82.6596 23.9654 82.7956 23.9994 82.9327 23.9934C83.0698 23.9875 83.2027 23.9418 83.3167 23.8615C83.4307 23.7811 83.5213 23.6692 83.5786 23.5381C83.6359 23.407 83.6577 23.2618 83.6415 23.1186L82.378 15.3427L87.7342 9.83893C87.8302 9.74022 87.8973 9.61477 87.9278 9.47732C87.9582 9.33987 87.9507 9.19613 87.9062 9.063C87.8616 8.92987 87.7819 8.81288 87.6762 8.72578C87.5706 8.63867 87.4436 8.58508 87.31 8.5713H87.313Z" fill="#FF9F0D"/>
<path d="M119.294 8.5713L111.917 7.44487L108.611 0.394281C108.54 0.273599 108.44 0.174109 108.321 0.105144C108.203 0.0361795 108.069 0 107.934 0C107.799 0 107.665 0.0361795 107.547 0.105144C107.428 0.174109 107.328 0.273599 107.256 0.394281L103.951 7.4545L96.5774 8.5713C96.4439 8.58508 96.3168 8.63867 96.2112 8.72578C96.1056 8.81288 96.0258 8.92987 95.9813 9.063C95.9367 9.19613 95.9292 9.33987 95.9597 9.47732C95.9901 9.61477 96.0573 9.74022 96.1532 9.83893L101.509 15.3427L100.243 23.1154C100.227 23.2586 100.248 23.4038 100.306 23.5349C100.363 23.666 100.454 23.7779 100.568 23.8583C100.682 23.9386 100.815 23.9843 100.952 23.9902C101.089 23.9962 101.225 23.9622 101.345 23.892L107.934 20.2463L114.52 23.8952C114.64 23.9654 114.776 23.9994 114.913 23.9934C115.05 23.9875 115.183 23.9418 115.297 23.8615C115.411 23.7811 115.502 23.6692 115.559 23.5381C115.616 23.407 115.638 23.2618 115.622 23.1186L114.358 15.3427L119.715 9.83893C119.811 9.74022 119.878 9.61477 119.908 9.47732C119.939 9.33987 119.931 9.19613 119.887 9.063C119.842 8.92987 119.762 8.81288 119.657 8.72578C119.551 8.63867 119.424 8.58508 119.29 8.5713H119.294Z" fill="#FF9F0D"/>
<path d="M151.274 8.5713L143.897 7.44487L140.592 0.394281C140.52 0.273599 140.42 0.174109 140.302 0.105144C140.183 0.0361795 140.05 0 139.914 0C139.779 0 139.646 0.0361795 139.527 0.105144C139.409 0.174109 139.309 0.273599 139.237 0.394281L135.932 7.4545L128.558 8.5713C128.424 8.58508 128.297 8.63867 128.192 8.72578C128.086 8.81288 128.006 8.92987 127.962 9.063C127.917 9.19613 127.91 9.33987 127.94 9.47732C127.971 9.61477 128.038 9.74022 128.134 9.83893L133.49 15.3427L132.223 23.1154C132.207 23.2586 132.229 23.4038 132.286 23.5349C132.344 23.666 132.434 23.7779 132.548 23.8583C132.662 23.9386 132.795 23.9843 132.932 23.9902C133.069 23.9962 133.205 23.9622 133.325 23.892L139.914 20.2463L146.501 23.8952C146.621 23.9654 146.757 23.9994 146.894 23.9934C147.031 23.9875 147.164 23.9418 147.278 23.8615C147.392 23.7811 147.482 23.6692 147.54 23.5381C147.597 23.407 147.619 23.2618 147.602 23.1186L146.339 15.3427L151.695 9.83893C151.791 9.74022 151.858 9.61477 151.889 9.47732C151.919 9.33987 151.912 9.19613 151.867 9.063C151.823 8.92987 151.743 8.81288 151.637 8.72578C151.532 8.63867 151.405 8.58508 151.271 8.5713H151.274Z" fill="#E0E0E0"/>
</svg>
